<?xml version="1.0" encoding="UTF-8" standalone="no"?>
<!-- Generator: Adobe Illustrator 22.1.0, SVG Export Plug-In . SVG Version: 6.00 Build 0)  -->

<svg
   xmlns:dc="http://purl.org/dc/elements/1.1/"
   xmlns:cc="http://creativecommons.org/ns#"
   xmlns:rdf="http://www.w3.org/1999/02/22-rdf-syntax-ns#"
   xmlns:svg="http://www.w3.org/2000/svg"
   xmlns="http://www.w3.org/2000/svg"
   xmlns:sodipodi="http://sodipodi.sourceforge.net/DTD/sodipodi-0.dtd"
   xmlns:inkscape="http://www.inkscape.org/namespaces/inkscape"
   version="1.1"
   id="Layer_1"
   x="0px"
   y="0px"
   viewBox="0 0 350 350"
   xml:space="preserve"
   sodipodi:docname="meta_green.svg"
   width="350"
   height="350"
   inkscape:version="0.92.1 r15371"
   inkscape:export-filename="D:\src\logo-meta\meta_green.png"
   inkscape:export-xdpi="1097.1428"
   inkscape:export-ydpi="1097.1428"><metadata
     id="metadata206"><rdf:RDF><cc:Work
         rdf:about=""><dc:format>image/svg+xml</dc:format><dc:type
           rdf:resource="http://purl.org/dc/dcmitype/StillImage" /><dc:title></dc:title></cc:Work></rdf:RDF></metadata><defs
     id="defs204" /><sodipodi:namedview
     pagecolor="#ffffff"
     bordercolor="#666666"
     borderopacity="1"
     objecttolerance="10"
     gridtolerance="10"
     guidetolerance="10"
     inkscape:pageopacity="0"
     inkscape:pageshadow="2"
     inkscape:window-width="1920"
     inkscape:window-height="1028"
     id="namedview202"
     showgrid="false"
     fit-margin-top="0"
     fit-margin-left="0"
     fit-margin-right="0"
     fit-margin-bottom="0"
     inkscape:zoom="1.3350176"
     inkscape:cx="-11.682984"
     inkscape:cy="131.3313"
     inkscape:window-x="-8"
     inkscape:window-y="-8"
     inkscape:window-maximized="1"
     inkscape:current-layer="Layer_1" /><style
     type="text/css"
     id="style2">
	.st0{fill:#EF4136;}
	.st1{fill:#6D6E71;}
	.st2{filter:url(#Adobe_OpacityMaskFilter);}
	.st3{fill:#FFFFFF;}
	.st4{mask:url(#SVGID_1_);}
	.st5{fill:url(#SVGID_6_);}
	.st6{fill:url(#SVGID_7_);}
	.st7{opacity:0.4;fill:url(#SVGID_8_);}
	.st8{fill:url(#SVGID_9_);}
	.st9{fill:url(#SVGID_10_);}
</style><rect
     style="opacity:1;fill:#277373;fill-opacity:1;fill-rule:evenodd;stroke:none;stroke-width:2.1720705;stroke-miterlimit:4;stroke-dasharray:none;stroke-opacity:1"
     id="rect4505"
     width="350"
     height="350"
     x="0"
     y="0" /><g
     id="g159"
     transform="translate(-853.65,-1259.0331)"><g
       id="g157" /></g><g
     id="g171"
     transform="translate(-853.65,-1259.0331)"><g
       id="g169"><path
         class="st3"
         d="m 882.1,1544.4 v -22.6 c 0,-0.2 0,-0.5 0.1,-0.7 0.1,-0.2 0.2,-0.4 0.4,-0.6 0.2,-0.2 0.3,-0.3 0.5,-0.4 0.2,-0.1 0.4,-0.1 0.7,-0.1 0.7,0 1.2,0.3 1.5,0.9 l 9.8,19.5 9.8,-19.5 c 0.4,-0.6 0.9,-0.9 1.5,-0.9 0.2,0 0.5,0 0.7,0.1 0.2,0.1 0.4,0.2 0.6,0.4 0.2,0.2 0.3,0.3 0.4,0.6 0.1,0.2 0.1,0.4 0.1,0.7 v 22.6 c 0,0.5 -0.2,0.9 -0.5,1.2 -0.3,0.3 -0.7,0.5 -1.2,0.5 -0.5,0 -0.9,-0.2 -1.2,-0.5 -0.3,-0.3 -0.5,-0.7 -0.5,-1.2 v -15.3 l -8.1,16.1 c -0.3,0.6 -0.8,0.9 -1.5,0.9 -0.7,0 -1.2,-0.3 -1.6,-1 l -8,-16 v 15.3 c 0,0.5 -0.2,0.9 -0.5,1.2 -0.3,0.3 -0.7,0.5 -1.2,0.5 -0.5,0 -0.9,-0.2 -1.2,-0.5 -0.4,-0.3 -0.6,-0.7 -0.6,-1.2 z"
         id="path161"
         inkscape:connector-curvature="0"
         style="fill:#ffffff" /><path
         class="st3"
         d="m 950.9,1542.7 c 0.5,0 0.9,0.2 1.2,0.5 0.3,0.3 0.5,0.7 0.5,1.2 0,0.5 -0.2,0.9 -0.5,1.2 -0.3,0.3 -0.7,0.5 -1.2,0.5 h -15.1 c -0.3,0 -0.5,0 -0.7,-0.1 -0.2,-0.1 -0.4,-0.2 -0.5,-0.4 -0.2,-0.2 -0.3,-0.3 -0.4,-0.5 -0.1,-0.2 -0.1,-0.4 -0.1,-0.7 v -22.6 c 0,-0.2 0,-0.5 0.1,-0.7 0.1,-0.2 0.2,-0.4 0.4,-0.6 0.2,-0.2 0.3,-0.3 0.5,-0.4 0.2,-0.1 0.4,-0.1 0.7,-0.1 h 15.1 c 0.5,0 0.9,0.2 1.2,0.5 0.3,0.3 0.5,0.7 0.5,1.2 0,0.5 -0.2,0.9 -0.5,1.2 -0.3,0.3 -0.7,0.5 -1.2,0.5 h -13.3 v 7.9 h 9.6 c 0.5,0 0.9,0.2 1.2,0.5 0.3,0.3 0.5,0.7 0.5,1.2 0,0.5 -0.2,0.9 -0.5,1.2 -0.3,0.3 -0.7,0.5 -1.2,0.5 h -9.6 v 7.9 h 13.3 z"
         id="path163"
         inkscape:connector-curvature="0"
         style="fill:#ffffff" /><path
         class="st3"
         d="m 996.3,1523.6 h -6.4 v 20.9 c 0,0.5 -0.2,0.9 -0.5,1.2 -0.3,0.3 -0.7,0.5 -1.2,0.5 -0.5,0 -0.9,-0.2 -1.2,-0.5 -0.3,-0.3 -0.5,-0.7 -0.5,-1.2 v -20.9 H 980 c -0.5,0 -0.9,-0.2 -1.2,-0.5 -0.3,-0.3 -0.5,-0.7 -0.5,-1.2 0,-0.5 0.2,-0.9 0.5,-1.2 0.3,-0.3 0.7,-0.5 1.2,-0.5 h 16.3 c 0.5,0 0.9,0.2 1.2,0.5 0.3,0.3 0.5,0.7 0.5,1.2 0,0.5 -0.2,0.9 -0.5,1.2 -0.3,0.3 -0.7,0.5 -1.2,0.5 z"
         id="path165"
         inkscape:connector-curvature="0"
         style="fill:#ffffff" /><path
         class="st3"
         d="m 1017.5,1543.7 8.7,-22.4 c 0.3,-0.8 0.9,-1.2 1.6,-1.2 0.8,0 1.3,0.4 1.6,1.2 l 8.7,22.5 c 0.1,0.2 0.1,0.5 0.1,0.7 0,0.5 -0.2,0.9 -0.5,1.2 -0.3,0.3 -0.7,0.5 -1.2,0.5 -0.5,0 -0.9,-0.2 -1.2,-0.5 -0.2,-0.2 -0.3,-0.4 -0.4,-0.6 l -3,-7.7 h -8.3 l -3,7.7 c -0.1,0.2 -0.2,0.4 -0.4,0.6 -0.3,0.3 -0.7,0.5 -1.2,0.5 -0.5,0 -0.9,-0.2 -1.2,-0.5 -0.3,-0.3 -0.5,-0.7 -0.5,-1.2 0,-0.3 0.1,-0.6 0.2,-0.8 z m 13.2,-9.8 -2.8,-7.3 -2.8,7.3 z"
         id="path167"
         inkscape:connector-curvature="0"
         style="fill:#ffffff" /></g></g><g
     id="g199"
     transform="translate(-853.65,-1259.0331)"><path
       class="st3"
       d="m 1175.2,1520 -0.2,-49 -0.5,-98 v 0 h -0.4 c 0,-2.1 0,-4.2 -0.1,-6.2 0,-2 0,-4 -0.1,-5.9 -0.2,-4 -0.3,-8.1 -0.7,-12.1 l -0.3,-3 c -0.1,-1 -0.3,-2 -0.4,-3 l -0.4,-3 -0.2,-1.5 -0.3,-1.5 -0.7,-3 -0.3,-1.5 c -0.1,-0.5 -0.3,-1 -0.4,-1.5 l -0.9,-2.9 c -0.3,-1 -0.6,-1.9 -1,-2.9 l -1.1,-2.8 c -0.4,-0.9 -0.7,-1.9 -1.2,-2.8 l -1.4,-2.7 c -0.5,-0.9 -0.9,-1.8 -1.4,-2.7 -1.1,-1.7 -2.1,-3.5 -3.3,-5.1 -0.6,-0.8 -1.1,-1.7 -1.8,-2.5 l -1.9,-2.4 c -0.6,-0.8 -1.3,-1.5 -2,-2.3 -0.7,-0.7 -1.4,-1.5 -2.1,-2.2 -1.5,-1.4 -2.9,-2.8 -4.6,-4.1 -3.1,-2.6 -6.5,-4.8 -10,-6.9 -3.5,-1.9 -7.2,-3.8 -11,-5.1 -1.9,-0.8 -3.9,-1.3 -5.8,-1.9 -1,-0.3 -2,-0.5 -3,-0.7 -1,-0.2 -2,-0.5 -3,-0.6 -2,-0.3 -4,-0.7 -6.1,-0.8 -1,-0.1 -2,-0.2 -3,-0.3 l -3.1,-0.1 c -1,-0.1 -2.1,0 -3.1,0 -1,0 -2,0 -3,0.1 -1,0.1 -2,0.1 -3.1,0.2 l -3,0.4 c -4,0.6 -8,1.5 -11.9,2.8 -3.9,1.3 -7.6,2.9 -11.2,4.9 -3.6,2 -7,4.2 -10.2,6.8 -3,2.4 -5.7,5 -8.4,7.7 l -0.4,-0.3 -0.8,-0.9 -0.1,-0.1 v 0 l -1.7,-1.7 c -0.6,-0.6 -1.2,-1.1 -1.8,-1.7 -1.2,-1.1 -2.5,-2.2 -3.8,-3.3 -2.6,-2.1 -5.3,-4 -8.2,-5.7 -2.9,-1.7 -5.9,-3.2 -9,-4.5 -3.1,-1.2 -6.3,-2.3 -9.5,-3.1 -6.5,-1.5 -13.2,-2.3 -19.9,-2 l -2.5,0.1 h -1.2 l -1.3,0.1 c -1.7,0.2 -3.4,0.4 -5,0.6 l -4.9,1 c -1.6,0.4 -3.2,0.9 -4.8,1.3 -6.4,2 -12.5,4.9 -18.1,8.5 l -4.1,2.8 c -0.7,0.5 -1.3,1 -2,1.5 l -1,0.8 -1,0.8 c -2.6,2.2 -5,4.5 -7.2,7 -2.2,2.5 -4.2,5.2 -6.1,8 l -1.3,2.1 -0.3,0.5 -0.2,0.3 -0.2,0.3 -0.6,1.1 c -0.8,1.5 -1.6,2.9 -2.3,4.4 -2.9,6.2 -4.7,12.6 -5.9,19.3 l -0.7,4.9 c -0.2,1.6 -0.3,3.3 -0.5,5 -0.1,1.7 -0.4,3.3 -0.4,5 l -0.3,5 c -0.2,3.3 -0.2,6.6 -0.3,9.9 -0.1,3.3 -0.1,6.6 -0.1,9.9 l -0.1,39.5 -0.2,79 v 0.2 0.3 0.3 0.3 l 0.1,0.5 c 0.1,0.3 0.1,0.7 0.3,1 l 0.2,0.5 c 0.1,0.2 0.2,0.3 0.3,0.5 0.4,0.6 1.1,1.2 1.8,1.5 0.3,0.1 0.7,0.2 1,0.3 0.3,0 0.6,0.1 0.9,0.1 0.1,0 0.5,0 0.4,0 h 0.2 0.3 c 0.4,-0.1 0.9,-0.2 1.2,-0.3 0.4,-0.2 0.7,-0.4 1,-0.7 0.2,-0.1 0.3,-0.3 0.4,-0.4 0.1,-0.2 0.2,-0.3 0.3,-0.5 0.8,-1.3 0.8,-2.5 0.8,-3.4 v -9.9 l 0.1,-19.8 0.1,-39.5 0.1,-39.5 0.1,-19.7 c 0,-3.3 0.1,-6.5 0.3,-9.8 0.1,-1.6 0.2,-3.2 0.4,-4.9 0.1,-1.6 0.3,-3.2 0.5,-4.8 0.8,-6.4 2.1,-12.8 4,-18.9 1,-3 2.1,-6 3.5,-8.9 1.4,-2.8 3,-5.6 4.8,-8.1 1,-1.3 2,-2.7 3,-3.8 0.5,-0.6 1,-1.2 1.5,-1.8 l 1.6,-1.7 c 0.5,-0.6 1.1,-1.1 1.7,-1.6 l 1.7,-1.6 1.8,-1.5 c 0.6,-0.5 1.2,-1 1.9,-1.4 1.3,-0.9 2.6,-1.8 3.9,-2.6 0.7,-0.4 1.3,-0.9 2,-1.2 l 2.1,-1.1 1,-0.6 1.1,-0.5 2.2,-1 c 1.5,-0.6 2.9,-1.2 4.4,-1.7 6,-2.1 12.2,-3.4 18.6,-3.7 l 2.4,-0.1 h 1.2 0.1 c 0.1,0 0,0 0.1,0 h 0.3 0.6 l 2.5,0.1 2.3,0.2 c 3.1,0.3 6.3,0.8 9.3,1.6 3.1,0.8 6.1,1.7 8.9,3 1.5,0.6 2.9,1.3 4.3,2 1.4,0.8 2.8,1.5 4.1,2.4 4.8,3 9.1,6.7 13,10.7 -3,4.5 -5.8,9.2 -8.1,14.2 -0.7,1.4 -1.2,2.9 -1.8,4.3 -0.5,1.5 -1.1,2.9 -1.5,4.4 l -0.7,2.3 -0.2,0.6 -0.1,0.2 v 0.1 l -0.1,0.3 -0.3,1.1 c -0.2,0.7 -0.4,1.5 -0.5,2.2 l -0.4,2.3 c -1.1,6.2 -1.7,12.3 -2,18.4 -0.3,6.1 -0.3,12.2 -0.3,18.3 l -0.1,72.5 v 36.2 9.1 2.3 1.1 0.3 0.1 0.3 0.3 c 0,0.1 0,0.3 0.1,0.5 0.1,0.7 0.3,1.4 0.7,2.1 0.4,0.7 1.1,1.5 1.9,2 0.2,0.1 0.4,0.2 0.6,0.3 0.2,0.1 0.4,0.1 0.6,0.2 0.4,0.1 0.8,0.2 1.1,0.2 h 0.3 c 0.2,0 -0.1,0 0.5,0 h 0.3 0.3 c 0,0 0.1,0 0.3,0 l 0.3,-0.1 c 0.5,-0.1 0.9,-0.2 1.3,-0.4 0.4,-0.2 0.8,-0.4 1.1,-0.8 0.2,-0.2 0.3,-0.3 0.5,-0.5 0.1,-0.2 0.3,-0.3 0.4,-0.5 0.1,-0.2 0.2,-0.4 0.3,-0.6 l 0.2,-0.5 0.2,-0.5 0.1,-0.5 c 0.1,-0.3 0.1,-0.7 0.1,-0.9 v -0.8 -0.6 -4.5 -9.1 l 0.1,-72.5 v -36.2 -9.1 c 0,-3 0.1,-5.9 0.3,-8.8 0.4,-5.9 1.1,-11.8 2.3,-17.5 1.2,-5.7 3,-11.3 5.5,-16.4 1.2,-2.6 2.7,-5 4.3,-7.3 0.4,-0.6 0.8,-1.1 1.3,-1.7 l 0.6,-0.7 0.8,-0.8 1.5,-1.7 0.8,-0.8 0.3,-0.4 0.4,-0.4 c 1,-1.1 2.1,-2.3 3.1,-3.2 l 1.5,-1.5 1.6,-1.4 c 1.1,-1 2.2,-1.8 3.3,-2.7 1.2,-0.8 2.3,-1.7 3.5,-2.5 2.4,-1.6 4.9,-2.9 7.5,-4.2 2.6,-1.1 5.3,-2.2 8,-3 11,-3.1 23,-3.1 34,-0.1 2.8,0.7 5.5,1.7 8.1,2.8 0.7,0.3 1.3,0.6 2,0.9 l 1,0.4 0.5,0.2 0.1,0.1 v 0 l 0.2,0.1 2,1.1 1,0.5 c 0.3,0.2 0.6,0.4 0.9,0.5 1.2,0.7 2.4,1.4 3.6,2.2 l 1.8,1.2 1.7,1.3 c 1.2,0.8 2.2,1.8 3.3,2.8 1.1,1 2.1,2 3.1,3 3.9,4.2 7.3,8.9 10,13.9 1.4,2.5 2.5,5.2 3.5,7.9 0.4,1.4 1,2.7 1.3,4.1 l 0.6,2.1 0.4,2.1 0.9,4.4 c 0.2,0.8 0.2,1.5 0.3,2.2 l 0.3,2.1 0.5,4.3 0.3,4.4 0.3,4.4 c 0.1,1.5 0.1,3 0.1,4.5 0,2.9 0.1,5.7 0.1,8.7 l -0.3,0.3 v 116 29 7.3 1.8 0.2 0.1 0.4 0.9 l -0.2,3.6 c 0,0.6 -0.1,1.1 -0.2,1.7 l -0.3,1.6 c -0.2,1.1 -0.3,2.2 -0.6,3.3 l -0.8,3.3 c -0.1,0.6 -0.3,1.1 -0.5,1.6 l -0.6,1.6 c -0.7,2.2 -1.8,4.1 -2.7,6.2 -0.5,1 -1.2,1.9 -1.7,2.9 l -0.9,1.5 c -0.3,0.5 -0.7,0.9 -1,1.4 l -2,2.7 c -0.7,0.9 -1.5,1.7 -2.3,2.5 l -0.6,0.6 -0.3,0.3 -0.1,0.2 -0.1,0.1 v 0 l -1.3,1.1 c -0.9,0.8 -1.8,1.7 -2.7,2.4 l -2.6,2 c -0.5,0.3 -0.8,0.7 -1.3,1 l -1.5,0.9 c -1,0.6 -1.9,1.2 -2.9,1.7 l -3.1,1.5 c -1,0.5 -2.1,0.9 -3.1,1.3 l -1.6,0.6 c -0.5,0.2 -1.1,0.4 -1.6,0.5 -2.2,0.5 -4.4,1.2 -6.6,1.5 l -1.7,0.3 c -0.6,0.1 -1.1,0.2 -1.7,0.2 l -3.4,0.2 h -0.8 -0.4 -0.1 -0.2 l -1.8,-0.1 c -1.2,-0.1 -2.4,-0.1 -3.6,-0.2 l -3.2,-0.5 c -0.5,-0.1 -1.1,-0.1 -1.6,-0.3 l -1.6,-0.4 c -1.1,-0.3 -2.2,-0.5 -3.3,-0.9 l -3.2,-1.2 c -0.5,-0.2 -1.1,-0.4 -1.6,-0.6 l -1.5,-0.7 c -1,-0.5 -2.1,-0.9 -3,-1.5 -1.9,-1.2 -3.9,-2.3 -5.7,-3.7 l -1.4,-1 c -0.5,-0.3 -0.9,-0.7 -1.3,-1.1 l -2.5,-2.3 -0.6,-0.6 -0.5,-0.5 -1.2,-1.3 -1.2,-1.3 c -0.2,-0.2 -0.4,-0.4 -0.6,-0.7 l -0.5,-0.7 -2,-2.6 c -0.7,-0.9 -1.2,-1.9 -1.8,-2.9 -1.3,-1.9 -2.1,-4 -3.1,-6 -0.4,-1 -0.8,-2.1 -1.2,-3.2 l -0.6,-1.6 c -0.2,-0.5 -0.3,-1.1 -0.4,-1.6 l -0.8,-3.3 c -0.2,-1.1 -0.4,-2.2 -0.5,-3.4 l -0.3,-1.7 c -0.1,-0.6 -0.1,-1.1 -0.1,-1.7 l -0.2,-3.4 c -0.1,-2.4 0,-4.8 0,-7.2 v -14.5 -116 l -3.4,-3.4 3.4,3.4 v -14.4 -7.2 -3.6 -0.9 -0.2 0 0 -0.4 l 0.1,-1.8 c 0.3,-8.9 3.9,-17.5 9.4,-24.3 2.8,-3.4 6.4,-6.5 10,-8.7 l 1.4,-0.9 c 0.5,-0.3 0.9,-0.6 1.5,-0.8 l 3,-1.4 3.1,-1.1 c 0.5,-0.2 1,-0.4 1.6,-0.5 l 1.6,-0.4 c 0.5,-0.1 1.1,-0.3 1.6,-0.4 l 1.6,-0.2 c 1.1,-0.1 2.2,-0.4 3.3,-0.4 l 3.3,-0.2 3.4,0.2 h 0.9 c 0.3,0 0.5,0.1 0.8,0.1 l 1.6,0.2 1.6,0.2 c 0.5,0.1 1.1,0.3 1.6,0.4 l 1.6,0.4 c 0.5,0.1 1.1,0.3 1.6,0.5 l 3.1,1.1 c 4.1,1.8 7.9,4.2 11.2,7.1 l 1.2,1.1 0.6,0.6 0.2,0.1 v 0 0 l 0.3,0.3 2.4,2.7 1.9,2.6 0.5,0.6 0.4,0.7 0.9,1.4 c 2.2,3.8 3.9,8 4.8,12.3 0.9,4.4 1,8.7 1,13.6 v 25.4 c 0.3,0.1 0.6,0.2 0.9,0.3 v 0 0 c 0.1,0 0.5,0.1 1,0.4 h 0.1 0.1 l 0.8,0.4 1.8,0.9 0.2,0.1 c 0.9,0.6 2,1.3 3.2,2.2 l 0.1,0.1 0.1,0.1 c 0.7,0.6 1.7,1.3 2.7,2.4 l 0.1,0.1 0.1,0.1 c 0.2,0.2 0.3,0.3 0.4,0.5 v -19.2 -12.3 -6.2 -0.3 -0.2 -0.4 -0.8 l -0.1,-1.5 -0.1,-1.5 v -0.8 l -0.1,-0.8 -0.5,-3.3 c -0.1,-0.5 -0.1,-1.1 -0.3,-1.6 l -0.4,-1.6 -0.8,-3.1 c -0.3,-1 -0.7,-2 -1.1,-3 -0.7,-2.1 -1.7,-3.9 -2.6,-5.9 l -0.4,-0.7 -0.4,-0.7 -0.8,-1.4 c -0.6,-0.9 -1.1,-1.9 -1.7,-2.7 l -1.9,-2.6 c -0.3,-0.4 -0.6,-0.9 -1,-1.3 l -1.1,-1.2 -2.2,-2.4 c -0.1,-0.1 0,0 -0.1,-0.1 l -0.1,-0.1 -0.1,-0.1 -0.3,-0.3 -0.6,-0.5 -1.1,-1 c -1.4,-1.4 -3.3,-2.7 -5.1,-4 -0.4,-0.3 -0.9,-0.6 -1.4,-0.9 l -1.4,-0.8 -1.4,-0.8 c -0.5,-0.3 -0.9,-0.6 -1.4,-0.8 -2,-0.9 -3.8,-2 -5.9,-2.6 l -3,-1.1 -3.1,-0.8 c -2.1,-0.6 -4.2,-0.8 -6.3,-1.2 -1.1,-0.2 -2.1,-0.2 -3.2,-0.3 l -3.3,-0.1 -3.1,0.2 c -1,0.1 -2,0.1 -3.1,0.3 -2.2,0.4 -4.4,0.6 -6.4,1.2 l -3.1,0.8 -3,1.1 c -2,0.7 -3.9,1.7 -5.9,2.6 -0.5,0.2 -0.9,0.5 -1.4,0.8 l -1.4,0.8 c -0.9,0.6 -1.9,1.1 -2.7,1.7 -1.7,1.3 -3.5,2.5 -5,4 l -1.2,1.1 -0.6,0.5 -0.3,0.3 -0.1,0.1 -0.1,0.1 -0.1,0.1 -2.1,2.3 -1,1.1 c -0.3,0.4 -0.7,0.9 -1,1.3 l -2,2.6 c -4.8,7.1 -7.9,15.3 -8.9,23.8 l -0.1,0.8 v 0.8 l -0.1,1.6 -0.1,3.2 v 6.2 12.3 l 0.3,98.8 1.6,1.6 -1.6,-1.6 0.1,24.5 v 12.2 6.1 3.1 l 0.1,3.1 c 0.4,8.4 2.5,16.6 6.2,24.1 3.6,7.5 8.9,14.3 15.1,19.7 6.3,5.5 13.7,9.7 21.6,12.2 7.9,2.6 16.4,3.5 24.6,2.8 8.3,-0.7 16.4,-3.1 23.7,-7.1 3.7,-2 7.1,-4.3 10.3,-6.9 l 2.3,-2 c 0.7,-0.7 1.5,-1.4 2.2,-2.2 0.7,-0.7 1.4,-1.5 2.1,-2.2 0.7,-0.8 1.4,-1.6 2,-2.4 5.2,-6.5 9.1,-14 11.3,-21.9 1.1,-4 1.8,-8.1 2.1,-12.2 0.2,-4.3 0,-8.3 0.1,-12.4 z"
       id="path173"
       inkscape:connector-curvature="0"
       style="fill:#ffffff" /><path
       class="st3"
       d="m 1154.9,1439.9 c -2.7,2.2 -5.9,4 -9.5,5 v 10 14.4 7.2 1.8 l -0.1,1.6 -0.1,1.8 -0.2,1.5 c -0.1,0.5 -0.1,1 -0.3,1.5 l -0.4,1.6 c -0.2,1.1 -0.6,2.1 -1,3.1 l -0.3,0.8 -0.4,0.7 -0.7,1.5 c -0.5,1 -1.1,1.9 -1.6,2.8 -0.6,0.9 -1.3,1.8 -2,2.6 l -1.1,1.2 -0.5,0.6 -0.1,0.1 -0.1,0.1 -0.3,0.3 -1.3,1.2 c -0.2,0.2 -0.5,0.4 -0.7,0.6 l -0.6,0.5 -1.2,0.9 c -0.4,0.3 -0.9,0.6 -1.4,0.9 -3.7,2.3 -7.9,3.7 -12.2,4.2 -1.1,0.1 -2.2,0.1 -3.2,0.2 h -0.2 v 0 h -0.1 -0.4 -0.9 l -1.8,-0.1 -3.1,-0.5 c -1,-0.3 -2.1,-0.5 -3.1,-0.8 -4.1,-1.4 -7.9,-3.6 -11.1,-6.6 l -0.6,-0.5 -0.2,-0.1 v 0 0 l -0.3,-0.3 -1.2,-1.3 c -0.2,-0.2 -0.4,-0.4 -0.6,-0.7 l -0.5,-0.6 -0.9,-1.2 c -0.6,-0.9 -1.1,-1.8 -1.7,-2.7 -0.5,-1 -1,-1.9 -1.4,-2.9 -0.8,-2 -1.4,-4.1 -1.8,-6.2 -0.2,-1.1 -0.4,-2.1 -0.4,-3.2 l -0.1,-1.6 c 0,-0.5 0,-1.2 0,-1.8 v -14.4 -19.8 c -3.8,-0.2 -7.5,-1.1 -10.7,-2.7 -0.4,-0.2 -0.9,-0.4 -1.3,-0.7 v 14.1 24.2 0.4 0.2 0.3 0.8 l 0.1,1.5 0.1,1.5 c 0.1,0.5 0.2,1.1 0.2,1.6 0.2,1.1 0.3,2.2 0.6,3.3 l 0.8,3.1 c 1.3,4.1 3.2,8.1 5.6,11.7 l 1.9,2.6 c 0.7,0.9 1.4,1.6 2.2,2.4 l 0.5,0.6 0.3,0.3 v 0 l 0.1,0.1 0.1,0.1 0.1,0.1 1.1,1 c 0.8,0.7 1.4,1.4 2.4,2 0.9,0.7 1.8,1.4 2.7,2 l 2.8,1.7 c 0.9,0.5 1.9,1 2.9,1.4 1,0.5 2,0.9 3,1.2 2,0.8 4.1,1.3 6.2,1.8 l 3.2,0.5 0.8,0.1 h 0.8 l 1.6,0.1 1.6,0.1 h 0.2 c -0.1,0 0.2,0 0.2,0 v 0 h 0.1 0.4 0.8 c 1,-0.1 2,-0.1 3.1,-0.2 l 3.3,-0.5 c 0.6,-0.1 1.1,-0.2 1.6,-0.3 l 1.6,-0.4 1.6,-0.4 1.5,-0.6 1.5,-0.6 0.8,-0.3 0.7,-0.3 2.9,-1.4 2.8,-1.7 0.7,-0.4 0.7,-0.5 1.3,-1 1.3,-1 1.2,-1.1 1.2,-1.1 0.6,-0.5 0.6,-0.6 c 0.7,-0.8 1.4,-1.4 2,-2.3 l 2,-2.7 1.7,-2.7 c 1.1,-1.9 2.1,-3.8 2.8,-5.8 1.3,-3.2 2.2,-6.6 2.6,-10.1 h 0.4 v -2.6 l -0.1,-43.7 c -0.4,0.6 -1.2,1.3 -2.1,2 z"
       id="path175"
       inkscape:connector-curvature="0"
       style="fill:#ffffff" /><radialGradient
       id="SVGID_9_"
       cx="16.504299"
       cy="7.0925002"
       r="1"
       gradientTransform="matrix(18.2459,-2.1839,-2.1839,-18.2459,802.1336,1587.6224)"
       gradientUnits="userSpaceOnUse"><stop
         offset="0"
         style="stop-color:#E6E7E8"
         id="stop177" /><stop
         offset="1"
         style="stop-color:#E6E7E8"
         id="stop179" /></radialGradient><path
       class="st8"
       d="m 1089.7,1438.2 c 11.2,-1.3 19.3,-9.6 18.3,-18.5 -1.1,-8.9 -11,-15 -22.1,-13.6 -11.1,1.4 -19.3,9.6 -18.3,18.5 1,8.9 10.9,15 22.1,13.6 z m -13.4,-14.7 c -0.6,-5.1 4.1,-9.8 10.4,-10.5 6.4,-0.8 12,2.7 12.6,7.8 0.6,5.1 -4.1,9.8 -10.4,10.5 -6.4,0.8 -12,-2.7 -12.6,-7.8 z"
       id="path182"
       inkscape:connector-curvature="0"
       style="fill:url(#SVGID_9_)" /><ellipse
       transform="matrix(0.9929,-0.1188,0.1188,0.9929,-161.3046,139.3525)"
       cx="1087.8"
       cy="1422.2"
       rx="11.6"
       ry="9.1999998"
       id="ellipse184" /><radialGradient
       id="SVGID_10_"
       cx="16.503599"
       cy="7.0921998"
       r="1"
       gradientTransform="matrix(18.2467,-2.184,-2.184,-18.2467,851.757,1590.9641)"
       gradientUnits="userSpaceOnUse"><stop
         offset="0"
         style="stop-color:#E6E7E8"
         id="stop186" /><stop
         offset="1"
         style="stop-color:#E6E7E8"
         id="stop188" /></radialGradient><path
       class="st9"
       d="m 1136.7,1409.4 c -11.2,0.5 -20,8.1 -19.6,17.1 0.4,8.9 9.8,15.7 21,15.2 11.2,-0.5 20,-8.1 19.6,-17.1 -0.4,-8.9 -9.8,-15.7 -21,-15.2 z m 1.1,25.3 c -6.4,0.3 -11.8,-3.6 -12,-8.7 -0.2,-5.1 4.8,-9.4 11.2,-9.7 6.4,-0.3 11.8,3.6 12,8.7 0.2,5.1 -4.8,9.4 -11.2,9.7 z"
       id="path191"
       inkscape:connector-curvature="0"
       style="fill:url(#SVGID_10_)" /><path
       d="m 1153.4,1404.2 c -0.7,-0.8 -1.6,-1.5 -2.5,-2.2 -0.9,-0.7 -1.9,-1.3 -2.9,-2 l -1.6,-0.8 -0.8,-0.4 c -0.3,-0.1 -0.6,-0.2 -0.8,-0.3 -0.6,-0.2 -1.1,-0.4 -1.7,-0.6 -0.6,-0.2 -1.1,-0.3 -1.7,-0.4 -0.3,-0.1 -0.6,-0.1 -0.8,-0.2 -0.3,0 -0.5,-0.1 -0.8,-0.1 -0.5,-0.1 -1.1,-0.1 -1.6,-0.2 -1,0 -2,-0.1 -3,0 -0.9,0 -1.8,0.1 -2.5,0.2 -0.7,0.1 -1.4,0.2 -1.9,0.4 -0.3,0.1 -0.5,0.1 -0.7,0.2 -0.2,0.1 -0.4,0.1 -0.6,0.2 -0.3,0.1 -0.4,0.1 -0.4,0.1 -0.1,0 -0.3,0.1 -0.4,0.2 -1.4,0.7 -1.9,2.5 -1.2,3.9 0.7,1.4 2.5,1.9 3.9,1.2 h 0.1 c 0,0 0.1,-0.1 0.3,-0.2 0.1,0 0.2,-0.1 0.3,-0.2 0.1,-0.1 0.3,-0.1 0.5,-0.2 0.4,-0.2 0.9,-0.3 1.4,-0.5 0.6,-0.2 1.2,-0.4 1.9,-0.5 0.7,-0.2 1.5,-0.2 2.4,-0.4 0.4,0 0.9,0 1.3,-0.1 0.2,0 0.5,0 0.7,0 0.2,0 0.5,0 0.7,0 0.5,0 1,0.1 1.4,0.1 0.5,0.1 1,0.2 1.5,0.3 0.2,0 0.5,0.1 0.7,0.1 l 0.7,0.2 1.5,0.5 c 0.9,0.4 1.9,0.8 2.8,1.3 0.9,0.6 1.8,1 2.6,1.6 0.8,0.6 1.6,1.2 2.3,1.8 0.7,0.6 1.3,1.3 1.9,1.9 0.3,0.3 0.6,0.6 0.8,0.8 0.2,0.3 0.5,0.6 0.7,0.8 0.4,0.5 0.8,1 1.1,1.4 0.6,0.8 0.9,1.2 0.9,1.2 0,0 -0.3,-0.5 -0.7,-1.3 -0.2,-0.4 -0.5,-0.9 -0.9,-1.5 -0.2,-0.3 -0.3,-0.6 -0.5,-0.9 -0.2,-0.3 -0.5,-0.6 -0.7,-1 -0.5,-0.7 -1,-1.4 -1.6,-2.2 -0.7,-0.6 -1.4,-1.4 -2.1,-2.2 z"
       id="path193"
       inkscape:connector-curvature="0" /><path
       d="m 1071.5,1404.9 c 0.2,-0.3 0.4,-0.5 0.7,-0.8 0.3,-0.3 0.5,-0.6 0.8,-0.8 0.6,-0.6 1.2,-1.2 1.8,-1.9 0.7,-0.6 1.5,-1.2 2.3,-1.8 0.8,-0.6 1.7,-1.1 2.6,-1.7 0.9,-0.5 1.9,-0.9 2.8,-1.3 l 1.5,-0.5 0.7,-0.2 c 0.2,-0.1 0.5,-0.1 0.7,-0.1 0.5,-0.1 1,-0.2 1.5,-0.3 0.5,-0.1 1,-0.1 1.4,-0.1 0.2,0 0.5,0 0.7,-0.1 0.2,0 0.5,0 0.7,0 0.5,0 0.9,0 1.3,0 0.9,0.1 1.7,0.2 2.4,0.3 0.7,0.1 1.4,0.3 2,0.5 0.6,0.2 1.1,0.4 1.4,0.5 0.2,0.1 0.4,0.2 0.5,0.2 0.1,0.1 0.2,0.1 0.3,0.2 0.2,0.1 0.3,0.2 0.3,0.2 h 0.1 c 0.1,0.1 0.3,0.1 0.4,0.2 1.5,0.5 3.1,-0.3 3.6,-1.9 0.5,-1.5 -0.3,-3.1 -1.9,-3.6 0,0 -0.2,0 -0.4,-0.1 -0.2,0 -0.4,-0.1 -0.6,-0.2 -0.2,-0.1 -0.5,-0.1 -0.7,-0.2 -0.5,-0.1 -1.2,-0.2 -1.9,-0.4 -0.8,-0.1 -1.6,-0.2 -2.5,-0.2 -0.9,-0.1 -1.9,0 -3,0.1 -0.5,0.1 -1.1,0.1 -1.6,0.2 -0.3,0 -0.5,0.1 -0.8,0.1 -0.3,0.1 -0.5,0.1 -0.8,0.2 -0.6,0.1 -1.1,0.3 -1.7,0.4 -0.5,0.2 -1.1,0.4 -1.7,0.6 -0.3,0.1 -0.6,0.2 -0.8,0.3 l -0.8,0.4 -1.6,0.8 c -1,0.7 -2,1.3 -2.9,2 -0.8,0.8 -1.7,1.5 -2.5,2.2 -0.7,0.8 -1.4,1.6 -2,2.3 -0.6,0.8 -1.1,1.5 -1.6,2.2 -0.2,0.3 -0.5,0.7 -0.7,1 -0.2,0.3 -0.4,0.7 -0.5,1 -0.3,0.6 -0.6,1.1 -0.8,1.5 -0.5,0.9 -0.7,1.3 -0.7,1.3 0,0 0.3,-0.4 0.9,-1.2 0.4,-0.3 0.7,-0.8 1.1,-1.3 z"
       id="path195"
       inkscape:connector-curvature="0" /><ellipse
       transform="matrix(0.999,-0.04428411,0.04428411,0.999,-62.0117,51.7673)"
       cx="1137.4"
       cy="1425.5"
       rx="11.6"
       ry="9.1999998"
       id="ellipse197" /></g></svg>